<svg width="94" height="91" viewBox="0 0 94 91" fill="none" xmlns="http://www.w3.org/2000/svg">
<path d="M23.8096 0.25C13.4408 0.25 2.94893 4.19204 2.5083 4.35767L0.488037 5.12671V71.7893L0.25 72.125H49.365L46.8931 69.6592L40.0571 62.8171C35.9446 61.664 29.8721 60.3208 23.8096 60.3208C17.3502 60.3208 10.5969 61.8492 6.5 63.043V9.51514C9.85312 8.44639 17.1096 6.5 23.8096 6.5C30.5547 6.5 37.5502 8.45543 40.875 9.52124V22.9307L47.125 24.1758V9.52124C50.4432 8.45632 57.421 6.5 64.1904 6.5C70.8904 6.5 78.1469 8.44639 81.5 9.51514V52.0933L87.512 58.1052V5.12671L85.4917 4.35767C85.0511 4.19204 74.5592 0.25 64.1904 0.25C55.6498 0.25 47.0187 2.92656 44 3.96094C40.9813 2.92656 32.3502 0.25 23.8096 0.25ZM30.1267 26.8674L34.4907 48.6875L35.1621 49.3528L75.1951 89.3918L76.9712 87.6157L77.136 87.7744C80.9424 91.5853 87.2114 91.5832 91.0276 87.7805L91.0337 87.7744C94.8356 83.9591 94.8417 77.6908 91.0337 73.8828L90.8689 73.718L92.6511 71.9358L51.9407 31.2375L30.1267 26.8674ZM41.821 35.5833L47.6987 36.7612L46.301 43.0417L40.0205 44.4395L38.8425 38.5618L41.821 35.5833ZM53.1003 41.2351L75.366 63.4885L66.7478 72.1067L44.4944 49.8472L51.5378 48.2786L53.1003 41.2351ZM79.7849 67.9075L83.8132 71.9358L75.1951 80.554L71.1667 76.5256L79.7849 67.9075ZM86.45 78.137L86.6147 78.3018C88.128 79.815 88.1266 81.8223 86.6147 83.3494C85.0872 84.8716 83.0673 84.8695 81.5549 83.3555L81.3962 83.1907L86.45 78.137Z" fill="white"/>
</svg>
